<?xml version="1.0" standalone="no"?>
<!DOCTYPE svg PUBLIC "-//W3C//DTD SVG 20010904//EN"
 "http://www.w3.org/TR/2001/REC-SVG-20010904/DTD/svg10.dtd">
<svg version="1.0" xmlns="http://www.w3.org/2000/svg"
 width="800.000000pt" height="356.000000pt" viewBox="0 0 800.000000 356.000000"
 preserveAspectRatio="xMidYMid meet">

<g transform="translate(0.000000,356.000000) scale(0.100000,-0.100000)"
fill="#000000" stroke="none">
<path d="M5645 2285 c-22 -8 -41 -15 -42 -15 -1 0 -11 -15 -22 -33 -15 -25
-37 -126 -81 -377 -33 -190 -60 -350 -60 -358 0 -11 36 -13 203 -10 234 4 255
10 295 88 l22 45 -177 5 -178 5 3 25 c4 27 99 568 108 613 7 32 -8 34 -71 12z"/>
<path d="M1872 2053 c-18 -9 -40 -29 -48 -46 -9 -16 -42 -181 -75 -366 -33
-185 -62 -344 -65 -353 -5 -16 3 -18 68 -18 l74 0 18 109 18 108 137 5 c162 5
193 17 229 88 l22 45 -180 3 c-99 1 -180 6 -180 10 0 4 18 103 38 220 l38 212
-30 0 c-17 0 -46 -8 -64 -17z"/>
<path d="M2050 2051 c-39 -21 -66 -54 -76 -93 l-6 -28 165 0 c128 0 167 -3
176 -14 9 -11 5 -53 -17 -180 -33 -189 -36 -182 56 -129 58 33 77 78 102 240
32 213 22 223 -212 223 -130 0 -159 -3 -188 -19z"/>
<path d="M2727 2046 c-131 -54 -210 -155 -223 -286 -16 -151 82 -263 231 -264
53 -1 69 4 115 32 l52 33 -6 -36 -7 -35 71 0 c38 0 70 1 70 3 1 1 20 110 44
242 60 337 61 335 -153 335 -120 0 -143 -3 -194 -24z m218 -140 c14 -21 14
-31 1 -96 -24 -115 -86 -173 -184 -173 -117 0 -160 144 -70 234 46 45 82 58
165 59 66 0 74 -2 88 -24z"/>
<path d="M3176 1910 c-42 -232 -28 -310 63 -375 36 -25 54 -30 115 -33 77 -4
109 6 154 48 30 28 37 20 22 -24 -29 -87 -95 -123 -214 -113 l-74 7 -7 -57
c-4 -31 -9 -62 -12 -68 -7 -20 111 -37 178 -26 133 22 213 87 259 209 11 29
40 164 65 300 25 136 47 257 50 270 5 21 3 22 -68 22 l-74 0 -22 -127 c-25
-140 -41 -185 -74 -222 -32 -35 -95 -61 -149 -61 -39 0 -50 5 -67 26 -28 35
-27 79 4 245 14 74 25 135 25 137 0 1 -33 2 -73 2 l-73 0 -28 -160z"/>
<path d="M3871 2043 c-24 -26 -30 -49 -70 -273 -23 -135 -45 -253 -48 -263 -4
-16 2 -18 68 -15 l73 3 36 205 c19 113 39 211 43 218 5 8 34 12 81 12 90 0
134 -24 154 -85 12 -35 10 -56 -12 -180 -15 -77 -26 -148 -26 -157 0 -15 10
-18 69 -18 l69 0 7 48 c3 26 17 103 30 172 24 123 25 126 68 167 78 73 159 65
201 -22 20 -39 20 -40 -4 -175 -13 -74 -25 -147 -28 -162 l-4 -28 71 0 c39 0
71 4 71 8 0 5 11 69 25 143 40 217 31 304 -41 371 -82 77 -225 76 -333 -3
l-43 -31 -32 31 c-54 52 -90 61 -251 61 l-147 0 -27 -27z"/>
<path d="M5762 2053 c-37 -18 -67 -56 -77 -96 l-7 -27 165 0 c132 0 167 -3
177 -15 9 -11 6 -48 -17 -177 -17 -90 -28 -165 -27 -167 2 -2 29 9 61 25 80
40 96 73 123 251 32 215 25 223 -213 223 -119 0 -159 -4 -185 -17z"/>
<path d="M5058 2041 c-203 -80 -294 -312 -177 -454 117 -142 389 -97 496 82
117 196 16 391 -202 390 -44 0 -88 -7 -117 -18z m134 -121 c51 -15 88 -61 88
-111 0 -50 -19 -87 -64 -127 -84 -74 -224 -43 -242 54 -12 65 57 165 124 180
15 3 32 7 37 9 16 6 18 5 57 -5z"/>
<path d="M6188 1536 c-2 -19 -1 -33 3 -30 9 5 17 64 8 64 -4 0 -9 -15 -11 -34z"/>
<path d="M6250 1561 c0 -5 5 -13 10 -16 6 -3 10 -2 10 4 0 5 -4 13 -10 16 -5
3 -10 2 -10 -4z"/>
<path d="M6305 1560 c-3 -5 -2 -10 4 -10 5 0 13 5 16 10 3 6 2 10 -4 10 -5 0
-13 -4 -16 -10z"/>
<path d="M6242 1520 c0 -14 2 -19 5 -12 2 6 2 18 0 25 -3 6 -5 1 -5 -13z"/>
<path d="M6312 1520 c0 -14 2 -19 5 -12 2 6 2 18 0 25 -3 6 -5 1 -5 -13z"/>
<path d="M6270 1505 c0 -8 2 -15 4 -15 2 0 6 7 10 15 3 8 1 15 -4 15 -6 0 -10
-7 -10 -15z"/>
</g>
</svg>
